<svg xmlns="http://www.w3.org/2000/svg" viewBox="0 0 500 500"><g id="freepik--Rain--inject-263"><path d="M49.63,432.85A11.46,11.46,0,0,1,47,430.69a11.26,11.26,0,0,1-2.24-2.53,11.05,11.05,0,0,1,2.61,2.16A10.8,10.8,0,0,1,49.63,432.85Z" style="fill:#263238"></path><path d="M55.46,432.24a13,13,0,0,1-1.07-4.33,12.61,12.61,0,0,1,0-4.46,37.41,37.41,0,0,1,.54,4.4A36.08,36.08,0,0,1,55.46,432.24Z" style="fill:#263238"></path><path d="M62.74,426.24a14.35,14.35,0,0,1-1.15,3.65A14.64,14.64,0,0,1,60,433.36a27.63,27.63,0,0,1,2.78-7.12Z" style="fill:#263238"></path><path d="M123.21,431.86a10.49,10.49,0,0,1-2.43-2.16,10,10,0,0,1-2-2.52,10.49,10.49,0,0,1,2.43,2.16A10,10,0,0,1,123.21,431.86Z" style="fill:#263238"></path><path d="M126.22,429.81a17.41,17.41,0,0,1,.34-6,17.41,17.41,0,0,1-.34,6Z" style="fill:#263238"></path><path d="M129.94,431.87c-.11-.11.48-.86,1-1.88s.88-1.9,1-1.87,0,1-.57,2.13S130,432,129.94,431.87Z" style="fill:#263238"></path><path d="M237.52,434.53a6.83,6.83,0,0,1-2.63-2.35,6.93,6.93,0,0,1-1.58-3.15c.15-.06.83,1.33,2,2.83S237.62,434.41,237.52,434.53Z" style="fill:#263238"></path><path d="M240,435.18a28.41,28.41,0,0,1-.4-5.34,28.13,28.13,0,0,1,.13-5.34,53.94,53.94,0,0,1,.27,10.68Z" style="fill:#263238"></path><path d="M244.31,435.82c-.13-.07.53-1.51,1.05-3.37a32.2,32.2,0,0,1,.9-3.42,7.7,7.7,0,0,1-.39,3.56A7.56,7.56,0,0,1,244.31,435.82Z" style="fill:#263238"></path><path d="M388,433.22a11.54,11.54,0,0,1-2.75-2.07,11.72,11.72,0,0,1-2.42-2.46,11.47,11.47,0,0,1,2.76,2.07A11.21,11.21,0,0,1,388,433.22Z" style="fill:#263238"></path><path d="M392.86,431a24.16,24.16,0,0,1-1.69-4.62,23,23,0,0,1-1.2-4.77,24.5,24.5,0,0,1,1.69,4.62A23.21,23.21,0,0,1,392.86,431Z" style="fill:#263238"></path><path d="M399,431.29a15.64,15.64,0,0,1,.71-3.94,15.41,15.41,0,0,1,1.23-3.82,16,16,0,0,1-.72,3.94A15.66,15.66,0,0,1,399,431.29Z" style="fill:#263238"></path><path d="M358.07,102.7c-.12.09-10.2-13.55-22.53-30.46s-22.23-30.68-22.11-30.77S323.63,55,336,71.93,358.19,102.62,358.07,102.7Z" style="fill:#263238"></path><path d="M348.32,144.92a6.73,6.73,0,0,1-.87-1L345.24,141c-1.86-2.47-4.39-5.89-7.16-9.68s-5.25-7.26-7-9.78l-2.08-3a6.71,6.71,0,0,1-.7-1.14,7,7,0,0,1,.87,1l2.21,2.9c1.86,2.46,4.39,5.88,7.16,9.68s5.25,7.25,7,9.77c.84,1.2,1.54,2.2,2.09,3A5.89,5.89,0,0,1,348.32,144.92Z" style="fill:#263238"></path><path d="M292.41,49a21.84,21.84,0,0,1-2.15-2.63l-2.21-2.94-1.29-1.75c-.23-.3-.45-.61-.68-.92l0,0h0c-.37.28.51-.36.42-.3h0l0,.06.09.12.17.24.35.48.35.48.18.24.08.12.05.06h0l-.42.31h0l0,0-.67-.93-1.27-1.76-2.12-3A21.7,21.7,0,0,1,281.46,34a21,21,0,0,1,2.15,2.63l2.21,2.93c.41.57.84,1.15,1.29,1.75l.68.93,0,0h0l-.42.3h0v0l-.05-.06-.08-.12-.18-.23-.35-.49-.35-.48-.17-.24-.09-.11,0-.06v0h0c-.1.06.79-.58.41-.31h0l0,0,.68.93,1.27,1.77c.77,1.1,1.48,2.11,2.12,3A24.23,24.23,0,0,1,292.41,49Z" style="fill:#263238"></path><path d="M398.89,238.36c-.11.08-10.2-13.56-22.53-30.46s-22.23-30.69-22.11-30.77,10.2,13.55,22.53,30.46S399,238.27,398.89,238.36Z" style="fill:#263238"></path><path d="M310.25,189.55a8.83,8.83,0,0,1-.87-1l-2.21-2.9c-1.85-2.47-4.38-5.89-7.15-9.68s-5.26-7.26-7-9.78l-2.08-3a6.46,6.46,0,0,1-.71-1.14,6.27,6.27,0,0,1,.87,1l2.21,2.9c1.86,2.46,4.39,5.88,7.16,9.68s5.25,7.25,7,9.77l2.08,3A6.27,6.27,0,0,1,310.25,189.55Z" style="fill:#263238"></path><path d="M345.73,299.06a2.38,2.38,0,0,1-.37-.42l-1-1.25-3.56-4.67c-3-3.94-7.25-9.31-12-15.16s-9-11.28-11.92-15.28c-1.47-2-2.65-3.63-3.44-4.77l-.9-1.31c-.21-.31-.31-.47-.29-.48a2.38,2.38,0,0,1,.37.42l1,1.25,3.56,4.67c3,3.94,7.25,9.31,12,15.17s9,11.27,11.92,15.27c1.47,2,2.64,3.63,3.44,4.77l.9,1.31A3.25,3.25,0,0,1,345.73,299.06Z" style="fill:#263238"></path><path d="M380.47,420.84a3,3,0,0,1-.37-.42l-1-1.26-3.57-4.66c-3-3.94-7.24-9.31-12-15.17s-9-11.28-11.92-15.28c-1.47-2-2.64-3.62-3.44-4.76l-.9-1.32a2.73,2.73,0,0,1-.29-.48,2.37,2.37,0,0,1,.37.42l1,1.26,3.56,4.66c3,3.94,7.25,9.31,12,15.17s9,11.28,11.91,15.28c1.47,2,2.65,3.62,3.44,4.76l.91,1.32A1.8,1.8,0,0,1,380.47,420.84Z" style="fill:#263238"></path><path d="M469.61,370a2.5,2.5,0,0,1-.37-.41l-1-1.26-3.56-4.66c-3-3.94-7.25-9.32-12-15.17s-9-11.28-11.92-15.28c-1.47-2-2.65-3.62-3.44-4.76-.36-.54-.66-1-.9-1.32a1.71,1.71,0,0,1-.29-.48,3,3,0,0,1,.37.42l1,1.26L441,333c3,3.94,7.25,9.31,12,15.17s9,11.28,11.92,15.28c1.47,2,2.65,3.62,3.44,4.76l.9,1.31A2.39,2.39,0,0,1,469.61,370Z" style="fill:#263238"></path><path d="M479.69,268.23a6.16,6.16,0,0,1-.85-1l-2.16-2.8-3.18-4.15c-1.22-1.55-2.52-3.28-4.08-4.92a59.94,59.94,0,0,1-4.08-5c-1.19-1.58-2.23-3-3.1-4.23s-1.56-2.21-2-2.9a6.41,6.41,0,0,1-.69-1.1,6.31,6.31,0,0,1,.85,1c.57.75,1.3,1.69,2.16,2.8l3.18,4.16c1.22,1.55,2.53,3.28,4.08,4.92a61.57,61.57,0,0,1,4.08,5c1.19,1.58,2.23,3,3.1,4.24s1.56,2.2,2,2.89A7,7,0,0,1,479.69,268.23Z" style="fill:#263238"></path><path d="M64.48,406.32a2.23,2.23,0,0,1-.41-.48L63,404.42c-.94-1.24-2.28-3.06-3.92-5.32-3.28-4.51-7.7-10.83-12.49-17.86s-9.17-13.38-12.37-17.94l-3.78-5.41c-.42-.61-.76-1.1-1-1.49a2.22,2.22,0,0,1-.32-.53,3.43,3.43,0,0,1,.41.47l1.09,1.43c.94,1.24,2.28,3.06,3.92,5.31,3.28,4.52,7.7,10.83,12.5,17.87s9.16,13.37,12.36,17.94c1.57,2.24,2.85,4.08,3.79,5.41l1,1.48A3.14,3.14,0,0,1,64.48,406.32Z" style="fill:#263238"></path><path d="M243,403.24a6.16,6.16,0,0,1-.85-1l-2.16-2.8-3.18-4.16c-1.22-1.55-2.52-3.27-4.08-4.92a58.28,58.28,0,0,1-4.08-5c-1.19-1.58-2.23-3-3.1-4.23s-1.56-2.21-2-2.9a6.41,6.41,0,0,1-.69-1.1,6.31,6.31,0,0,1,.85,1c.57.75,1.3,1.68,2.16,2.8L229,385.1c1.22,1.55,2.53,3.28,4.08,4.92a61.57,61.57,0,0,1,4.08,5c1.19,1.58,2.23,3,3.1,4.23s1.56,2.21,2,2.9A6.46,6.46,0,0,1,243,403.24Z" style="fill:#263238"></path><path d="M57.25,325.28a6.31,6.31,0,0,1-.85-1c-.57-.75-1.3-1.69-2.16-2.8l-3.18-4.16c-1.22-1.55-2.53-3.28-4.08-4.92a61.57,61.57,0,0,1-4.08-5c-1.19-1.58-2.23-3-3.1-4.24s-1.56-2.2-2-2.89a6.1,6.1,0,0,1-.68-1.11,6.16,6.16,0,0,1,.85,1L40.09,303l3.19,4.16c1.22,1.55,2.52,3.28,4.08,4.92a59.94,59.94,0,0,1,4.08,5c1.18,1.58,2.23,3,3.1,4.23s1.55,2.21,2,2.9A6.41,6.41,0,0,1,57.25,325.28Z" style="fill:#263238"></path><path d="M386.6,361.34a6.91,6.91,0,0,1-.87-1l-2.22-2.9c-1.85-2.46-4.38-5.89-7.15-9.68s-5.25-7.26-7-9.77l-2.08-3a7.36,7.36,0,0,1-.71-1.14,6.27,6.27,0,0,1,.87,1l2.22,2.9c1.85,2.46,4.38,5.88,7.15,9.68s5.25,7.25,7,9.77l2.08,3A6.83,6.83,0,0,1,386.6,361.34Z" style="fill:#263238"></path><path d="M343.77,244.8a21.84,21.84,0,0,1-2.15-2.63l-2.21-2.94c-.42-.56-.85-1.14-1.29-1.75-.23-.3-.45-.61-.68-.92l0,0h0l.43-.31h0l0,.06.09.12.17.24.35.48.36.48.17.24.08.12.05.06h0l-.41.3h0l0,0-.67-.93-1.27-1.76-2.12-3a21.7,21.7,0,0,1-1.85-2.84,20,20,0,0,1,2.15,2.63l2.21,2.94,1.29,1.74.68.93,0,0h0c.09-.07-.79.58-.42.3h0v0l0-.06-.09-.11-.18-.24-.35-.48-.35-.49-.17-.23-.09-.12,0-.06v0h0c-.09.07.79-.58.41-.31h0l0,0,.67.93L339.8,239c.77,1.1,1.49,2.11,2.12,3A22.69,22.69,0,0,1,343.77,244.8Z" style="fill:#263238"></path><path d="M128.7,152.06c-.12.08-10.2-13.56-22.53-30.46S83.94,90.91,84.06,90.83s10.2,13.55,22.53,30.46S128.82,152,128.7,152.06Z" style="fill:#263238"></path><path d="M119,194.27a6.27,6.27,0,0,1-.87-1l-2.21-2.9c-1.86-2.46-4.39-5.88-7.16-9.68s-5.25-7.25-7-9.77l-2.08-3a5.89,5.89,0,0,1-.7-1.14,7.75,7.75,0,0,1,.87,1l2.21,2.9c1.85,2.47,4.39,5.89,7.15,9.69s5.26,7.25,7,9.77l2.09,3A6.71,6.71,0,0,1,119,194.27Z" style="fill:#263238"></path><path d="M80.54,219.13a2.5,2.5,0,0,1-.37-.41l-1-1.26-3.56-4.66c-3-3.94-7.25-9.31-12-15.17s-9-11.28-11.92-15.28c-1.47-2-2.65-3.62-3.44-4.76l-.9-1.32a2.11,2.11,0,0,1-.29-.48,3,3,0,0,1,.37.42l1,1.26L52,182.13c3,3.94,7.25,9.31,12,15.17s9,11.28,11.92,15.28c1.47,2,2.65,3.62,3.44,4.76l.9,1.31C80.46,219,80.56,219.12,80.54,219.13Z" style="fill:#263238"></path><path d="M70.79,261.35a6.27,6.27,0,0,1-.87-1l-2.21-2.9c-1.86-2.46-4.39-5.88-7.16-9.68s-5.25-7.26-7-9.77l-2.08-3a6.27,6.27,0,0,1-.7-1.14,7,7,0,0,1,.87,1l2.21,2.9c1.86,2.46,4.39,5.88,7.16,9.68s5.25,7.26,7,9.77l2.09,3A6.27,6.27,0,0,1,70.79,261.35Z" style="fill:#263238"></path><path d="M70.85,135.3a22.5,22.5,0,0,1-2.14-2.63l-2.21-2.94L65.2,128l-.68-.92,0,0h0l.42-.31h0l0,.06.08.12.18.24.35.48.35.48.17.24.09.12,0,.06h0l-.42.31h0l0,0-.68-.93-1.26-1.76-2.13-3a22.15,22.15,0,0,1-1.84-2.84,20.5,20.5,0,0,1,2.14,2.63l2.21,2.93,1.3,1.75.68.93,0,0h0l-.42.3h0l0,0,0-.06-.09-.12-.17-.23-.35-.48-.35-.49-.17-.23-.09-.12,0-.06v0h0l.42-.31h0l0,0c.23.32.45.63.68.93l1.26,1.77,2.12,3A21.32,21.32,0,0,1,70.85,135.3Z" style="fill:#263238"></path><path d="M179.48,286.65c-.12.08-10.21-13.55-22.53-30.46s-22.23-30.68-22.11-30.77S145,239,157.37,255.88,179.59,286.57,179.48,286.65Z" style="fill:#263238"></path><path d="M169.73,328.86a5.74,5.74,0,0,1-.87-1c-.59-.76-1.33-1.73-2.22-2.9-1.85-2.46-4.38-5.88-7.15-9.68s-5.25-7.25-7-9.77l-2.08-3a7.36,7.36,0,0,1-.71-1.14,5.74,5.74,0,0,1,.87,1c.59.76,1.33,1.74,2.22,2.9,1.85,2.46,4.38,5.88,7.15,9.68s5.25,7.25,7,9.77l2.08,3A7.36,7.36,0,0,1,169.73,328.86Z" style="fill:#263238"></path><path d="M131.32,353.73a2.15,2.15,0,0,1-.38-.42l-1-1.26c-.89-1.16-2.09-2.74-3.57-4.66-3-3.94-7.24-9.31-12-15.17s-9-11.28-11.92-15.28c-1.47-2-2.64-3.62-3.43-4.76l-.91-1.32a1.8,1.8,0,0,1-.28-.48,3,3,0,0,1,.37.42l1,1.26,3.57,4.66c3,3.94,7.24,9.31,12,15.17s9,11.28,11.92,15.28c1.47,2,2.64,3.62,3.43,4.76l.91,1.32A2.73,2.73,0,0,1,131.32,353.73Z" style="fill:#263238"></path><path d="M121.57,395.94a6.27,6.27,0,0,1-.87-1l-2.22-2.9c-1.85-2.46-4.38-5.88-7.15-9.68s-5.25-7.25-7-9.77l-2.08-3a6.83,6.83,0,0,1-.71-1.14,6.91,6.91,0,0,1,.87,1l2.22,2.9c1.85,2.46,4.38,5.89,7.15,9.68s5.25,7.26,7,9.77l2.08,3A6.83,6.83,0,0,1,121.57,395.94Z" style="fill:#263238"></path><path d="M121.63,269.89a21.84,21.84,0,0,1-2.15-2.63l-2.21-2.94L116,262.58l-.68-.93,0,0h0l.42-.3h0l0,.06.09.12.17.24.36.48.35.48.17.24.09.12,0,.06h0c.38-.27-.51.37-.41.31h0l0,0-.67-.93-1.27-1.76-2.12-3a21.7,21.7,0,0,1-1.85-2.84,20.85,20.85,0,0,1,2.15,2.63l2.21,2.94,1.29,1.74.68.93,0,0h0c.09-.07-.79.58-.42.3h0v0l0-.06-.09-.11-.17-.24-.36-.48-.35-.48-.17-.24-.09-.12,0-.06v0h0c-.09.07.79-.58.41-.31h0l0,0,.67.93,1.27,1.77c.77,1.1,1.49,2.11,2.12,3A21.32,21.32,0,0,1,121.63,269.89Z" style="fill:#263238"></path><path d="M248.59,96c-.12.08-10.21-13.55-22.53-30.46S203.83,34.87,204,34.78s10.2,13.55,22.53,30.46S248.7,95.93,248.59,96Z" style="fill:#263238"></path><path d="M238.84,138.22a5.74,5.74,0,0,1-.87-1c-.59-.76-1.33-1.73-2.22-2.9-1.85-2.46-4.38-5.88-7.15-9.68s-5.25-7.25-7-9.77l-2.08-3a8.54,8.54,0,0,1-.71-1.14,6.27,6.27,0,0,1,.87,1c.59.76,1.33,1.74,2.22,2.9,1.85,2.46,4.38,5.88,7.15,9.68s5.26,7.25,7,9.77l2.08,3A6.46,6.46,0,0,1,238.84,138.22Z" style="fill:#263238"></path><path d="M200.43,163.09a2.37,2.37,0,0,1-.37-.42l-1-1.26-3.56-4.66c-3-3.94-7.25-9.31-12-15.17s-9-11.28-11.92-15.28c-1.47-2-2.65-3.62-3.44-4.76l-.9-1.32a1.71,1.71,0,0,1-.29-.48,3,3,0,0,1,.37.42l1,1.26,3.57,4.66c3,3.94,7.24,9.31,12,15.17s9,11.28,11.92,15.28c1.47,2,2.64,3.62,3.44,4.76l.9,1.32A2.73,2.73,0,0,1,200.43,163.09Z" style="fill:#263238"></path><path d="M190.68,205.3a6.27,6.27,0,0,1-.87-1l-2.22-2.9c-1.85-2.46-4.38-5.88-7.15-9.68s-5.25-7.25-7-9.77l-2.08-3a6.27,6.27,0,0,1-.7-1.14,8.83,8.83,0,0,1,.87,1l2.21,2.9c1.85,2.46,4.38,5.89,7.15,9.68s5.26,7.26,7,9.77c.84,1.2,1.53,2.21,2.08,3A6.46,6.46,0,0,1,190.68,205.3Z" style="fill:#263238"></path><path d="M190.74,79.25a22.5,22.5,0,0,1-2.14-2.63l-2.22-2.94-1.29-1.74-.68-.93,0,0h0l.42-.3h0l.05.06.08.12.18.24.35.48.35.48.17.24.09.12,0,.06h0c.38-.27-.5.37-.41.31h0l0,0-.68-.94c-.43-.6-.86-1.19-1.26-1.76l-2.13-3a22.15,22.15,0,0,1-1.84-2.84,22.66,22.66,0,0,1,2.14,2.63l2.21,2.94,1.29,1.74.69.93,0,0h0l-.42.3h0v0l0-.06-.09-.11-.17-.24-.35-.48-.35-.48-.18-.24-.08-.12,0-.06v0h0l.42-.31h0l0,0,.67.93,1.27,1.77,2.12,3A21.32,21.32,0,0,1,190.74,79.25Z" style="fill:#263238"></path><path d="M299.36,230.6c-.11.09-10.2-13.55-22.53-30.46s-22.22-30.68-22.11-30.77,10.21,13.55,22.54,30.47S299.48,230.52,299.36,230.6Z" style="fill:#263238"></path><path d="M289.62,272.82a6.91,6.91,0,0,1-.87-1l-2.22-2.9c-1.85-2.46-4.38-5.89-7.15-9.68s-5.26-7.26-7-9.77c-.84-1.2-1.53-2.21-2.08-3a6.46,6.46,0,0,1-.71-1.14,6.27,6.27,0,0,1,.87,1l2.22,2.9c1.85,2.46,4.38,5.88,7.15,9.68s5.25,7.25,7,9.77l2.08,3A7.83,7.83,0,0,1,289.62,272.82Z" style="fill:#263238"></path><path d="M251.2,297.68a2.38,2.38,0,0,1-.37-.42l-1-1.26c-.89-1.16-2.1-2.73-3.57-4.66-3-3.94-7.24-9.31-12-15.17s-9-11.28-11.92-15.28c-1.47-2-2.64-3.62-3.43-4.76l-.91-1.31a3.25,3.25,0,0,1-.29-.48s.15.13.38.41l1,1.26c.89,1.16,2.09,2.74,3.57,4.66,3,3.94,7.24,9.32,12,15.17s9,11.28,11.92,15.28c1.47,2,2.64,3.62,3.43,4.76l.91,1.32A1.8,1.8,0,0,1,251.2,297.68Z" style="fill:#263238"></path><path d="M241.46,339.89a6.27,6.27,0,0,1-.87-1c-.59-.76-1.33-1.74-2.22-2.9-1.85-2.46-4.38-5.88-7.15-9.68s-5.25-7.25-7-9.77l-2.08-3a5.9,5.9,0,0,1-.71-1.15,6.73,6.73,0,0,1,.87,1l2.22,2.89c1.85,2.47,4.38,5.89,7.15,9.69s5.25,7.25,7,9.77l2.08,3A7.36,7.36,0,0,1,241.46,339.89Z" style="fill:#263238"></path><path d="M241.52,213.84a20,20,0,0,1-2.15-2.63l-2.21-2.94-1.29-1.74-.68-.93,0,0h0c-.37.27.52-.37.43-.3h0v0l0,.06.09.11.17.24.35.48.35.48.18.24.08.12,0,.06v0h0c.38-.27-.51.37-.42.31h0l0,0-.67-.93-1.27-1.77-2.12-3a21.32,21.32,0,0,1-1.85-2.85,23.09,23.09,0,0,1,2.15,2.63l2.21,2.94,1.29,1.75.68.92,0,0h0c.09-.07-.79.58-.42.3h0l-.05-.06-.08-.12-.18-.24-.35-.48-.35-.48-.17-.24-.09-.12,0-.06h0c-.1.07.79-.58.41-.31h0l0,0,.67.93,1.27,1.76,2.12,3A24.74,24.74,0,0,1,241.52,213.84Z" style="fill:#263238"></path><path d="M420.34,180.22a8.36,8.36,0,0,1-1.07-1.07c-.67-.71-1.6-1.76-2.73-3.08-2.26-2.65-5.26-6.41-8.33-10.74s-5.61-8.42-7.35-11.43c-.88-1.51-1.56-2.74-2-3.6a8.37,8.37,0,0,1-.66-1.36,7.79,7.79,0,0,1,.83,1.26l2.14,3.51c1.82,3,4.41,7,7.46,11.32s6,8.1,8.19,10.8l2.6,3.19A10.56,10.56,0,0,1,420.34,180.22Z" style="fill:#263238"></path><path d="M416.64,368.76c-.11.09-4.54-5.21-9.89-11.85s-9.59-12.08-9.47-12.18,4.53,5.22,9.88,11.86S416.75,368.67,416.64,368.76Z" style="fill:#263238"></path><path d="M157.48,359.58c.11-.08,10.2,13.56,22.52,30.46s22.23,30.69,22.12,30.77-10.21-13.55-22.54-30.46S157.36,359.67,157.48,359.58Z" style="fill:#e0e0e0"></path><path d="M188,275.37a6.27,6.27,0,0,1,.87,1l2.21,2.9c1.86,2.46,4.39,5.88,7.16,9.68s5.25,7.26,7,9.77l2.08,3a6.27,6.27,0,0,1,.7,1.14,7,7,0,0,1-.87-1l-2.21-2.9c-1.85-2.46-4.39-5.88-7.15-9.68s-5.26-7.26-7-9.77l-2.09-3A6.27,6.27,0,0,1,188,275.37Z" style="fill:#e0e0e0"></path><path d="M397.89,305s.14.13.37.42l1,1.26c.89,1.15,2.09,2.73,3.56,4.66,3,3.94,7.25,9.31,12,15.17s9,11.28,11.93,15.27c1.47,2,2.64,3.63,3.43,4.77l.91,1.31a2,2,0,0,1,.28.48,2.5,2.5,0,0,1-.37-.41l-1-1.26L426.47,342c-3-3.94-7.24-9.32-12-15.18s-9-11.27-11.92-15.27c-1.47-2-2.64-3.63-3.43-4.76l-.91-1.32A2.73,2.73,0,0,1,397.89,305Z" style="fill:#e0e0e0"></path><path d="M261.22,382.69a21.84,21.84,0,0,1,2.15,2.63l2.21,2.94c.41.56.85,1.14,1.29,1.75l.68.92,0,0h0c.38-.27-.51.37-.42.31h0l0-.06-.09-.12-.17-.24-.36-.48-.35-.48-.17-.24-.09-.12,0-.06h0l.41-.3h0l0,0,.67.93,1.27,1.76,2.12,3a21.7,21.7,0,0,1,1.85,2.84,20,20,0,0,1-2.15-2.63l-2.21-2.94-1.29-1.74-.68-.93,0,0h0c-.09.07.79-.58.42-.3h0v0l0,.06.09.11.17.24.36.48.35.48.17.24.09.12,0,.06v0h0c.09-.07-.79.58-.41.31h0l0,0-.67-.93-1.27-1.77c-.77-1.1-1.49-2.11-2.12-3A21.32,21.32,0,0,1,261.22,382.69Z" style="fill:#e0e0e0"></path><path d="M127.42,183c.12-.08,10.21,13.56,22.53,30.46s22.23,30.69,22.11,30.77-10.2-13.55-22.53-30.46S127.31,183.08,127.42,183Z" style="fill:#e0e0e0"></path><path d="M137.17,140.78a6.27,6.27,0,0,1,.87,1l2.22,2.9c1.85,2.46,4.38,5.88,7.15,9.68s5.25,7.25,7,9.77l2.08,3a6.83,6.83,0,0,1,.71,1.14,6.91,6.91,0,0,1-.87-1l-2.22-2.9c-1.85-2.46-4.38-5.89-7.15-9.68s-5.25-7.26-7-9.77l-2.08-3A6.83,6.83,0,0,1,137.17,140.78Z" style="fill:#e0e0e0"></path><path d="M63.79,305a2.38,2.38,0,0,1,.37.42l1,1.26,3.56,4.66c3,3.94,7.25,9.31,12,15.17s9,11.28,11.92,15.27c1.47,2,2.65,3.63,3.44,4.77l.9,1.31c.21.31.31.47.29.48a2.5,2.5,0,0,1-.37-.41l-1-1.26L92.37,342c-3-3.94-7.25-9.32-12-15.18s-9-11.27-11.92-15.27c-1.47-2-2.64-3.63-3.44-4.76-.36-.54-.66-1-.9-1.32A2.73,2.73,0,0,1,63.79,305Z" style="fill:#e0e0e0"></path><path d="M235.48,24.38a2.15,2.15,0,0,1,.38.42l1,1.26,3.57,4.66c3,3.94,7.24,9.31,12,15.17s9,11.28,11.92,15.28c1.47,2,2.64,3.62,3.43,4.76l.91,1.31a2,2,0,0,1,.28.48,2.5,2.5,0,0,1-.37-.41l-1-1.26c-.89-1.16-2.09-2.74-3.57-4.66-3-3.94-7.24-9.32-12-15.17s-9-11.28-11.92-15.28c-1.47-2-2.64-3.62-3.43-4.76l-.91-1.32A2.73,2.73,0,0,1,235.48,24.38Z" style="fill:#e0e0e0"></path><path d="M92.17,64.27s.15.13.38.42l1,1.26,3.57,4.66c3,3.94,7.24,9.31,12,15.17s9,11.28,11.92,15.27c1.47,2,2.64,3.63,3.43,4.77l.91,1.31a2,2,0,0,1,.28.48,2.5,2.5,0,0,1-.37-.41l-1-1.26-3.57-4.66c-3-3.94-7.24-9.32-12-15.17s-9-11.28-11.92-15.28c-1.47-2-2.64-3.63-3.43-4.76l-.91-1.32A2.73,2.73,0,0,1,92.17,64.27Z" style="fill:#e0e0e0"></path><path d="M16.93,188.11a6.16,6.16,0,0,1,.85,1l2.16,2.8,3.18,4.16c1.22,1.54,2.52,3.27,4.08,4.91a59.94,59.94,0,0,1,4.08,5c1.19,1.58,2.23,3,3.1,4.23s1.56,2.21,2,2.9a6.41,6.41,0,0,1,.69,1.1,6.31,6.31,0,0,1-.85-1c-.57-.75-1.3-1.68-2.16-2.8l-3.18-4.16c-1.22-1.55-2.53-3.28-4.08-4.92a61.57,61.57,0,0,1-4.08-5c-1.19-1.58-2.23-3-3.1-4.23s-1.56-2.21-2-2.9A6.46,6.46,0,0,1,16.93,188.11Z" style="fill:#e0e0e0"></path><path d="M346.5,20.83s.16.15.41.47l1.1,1.43c.94,1.24,2.28,3.06,3.92,5.31,3.28,4.52,7.7,10.83,12.49,17.86s9.16,13.38,12.36,18l3.79,5.41c.42.61.75,1.1,1,1.48a2.64,2.64,0,0,1,.32.54,3.25,3.25,0,0,1-.41-.48l-1.09-1.42c-1-1.24-2.28-3.06-3.93-5.32-3.28-4.51-7.7-10.83-12.49-17.86s-9.16-13.38-12.36-17.94l-3.79-5.41-1-1.49A3.38,3.38,0,0,1,346.5,20.83Z" style="fill:#e0e0e0"></path><path d="M27,255.19a6.31,6.31,0,0,1,.85,1c.57.75,1.29,1.69,2.16,2.8s2,2.62,3.18,4.16,2.52,3.28,4.08,4.92a61.57,61.57,0,0,1,4.08,5c1.19,1.58,2.23,3,3.1,4.24s1.55,2.2,2,2.89a6.67,6.67,0,0,1,.69,1.11,6.16,6.16,0,0,1-.85-1l-2.16-2.79L41,273.33c-1.22-1.55-2.53-3.28-4.08-4.92a59.94,59.94,0,0,1-4.08-5c-1.19-1.58-2.23-3-3.1-4.23s-1.56-2.21-2-2.9A6.67,6.67,0,0,1,27,255.19Z" style="fill:#e0e0e0"></path><path d="M16.93,86.51a6.16,6.16,0,0,1,.85,1l2.16,2.8,3.18,4.16c1.22,1.54,2.52,3.27,4.08,4.91a59.94,59.94,0,0,1,4.08,5c1.19,1.58,2.23,3,3.1,4.23s1.56,2.21,2,2.9a6.41,6.41,0,0,1,.69,1.1,6.31,6.31,0,0,1-.85-1c-.57-.75-1.3-1.68-2.16-2.8l-3.18-4.16c-1.22-1.55-2.53-3.28-4.08-4.92a61.57,61.57,0,0,1-4.08-5c-1.19-1.58-2.23-3-3.1-4.23s-1.56-2.21-2-2.9A6.46,6.46,0,0,1,16.93,86.51Z" style="fill:#e0e0e0"></path><path d="M162,72.19a7,7,0,0,1,.87,1l2.21,2.9c1.86,2.46,4.39,5.88,7.15,9.68s5.26,7.25,7,9.77c.84,1.2,1.54,2.2,2.09,3a6.27,6.27,0,0,1,.7,1.14,6.91,6.91,0,0,1-.87-1L179,95.78c-1.86-2.46-4.39-5.89-7.16-9.69s-5.25-7.25-7-9.76l-2.09-3A6.71,6.71,0,0,1,162,72.19Z" style="fill:#e0e0e0"></path><path d="M174.32,211.63a20.85,20.85,0,0,1,2.15,2.63l2.21,2.94,1.29,1.74.68.93,0,0h0c.37-.27-.52.37-.43.3h0v0l0-.05-.09-.12-.17-.24-.35-.48-.36-.48-.17-.24-.08-.12,0-.06h0c-.38.27.51-.37.41-.31h0l0,0,.67.93,1.27,1.77c.77,1.1,1.49,2.11,2.12,3a21.32,21.32,0,0,1,1.85,2.85,20.85,20.85,0,0,1-2.15-2.63l-2.21-2.94c-.41-.56-.85-1.14-1.29-1.75l-.68-.92,0,0h0c-.09.07.79-.58.42-.3h0l0,.06.09.12.17.24.36.48.35.48.17.24.09.12,0,.06h0c.09-.07-.79.58-.41.31h0l0,0-.67-.93-1.27-1.76-2.12-3A20.93,20.93,0,0,1,174.32,211.63Z" style="fill:#e0e0e0"></path><path d="M407.57,268.23c.12-.09,10.2,13.55,22.53,30.46s22.23,30.68,22.11,30.77S442,315.91,429.68,299,407.45,268.31,407.57,268.23Z" style="fill:#e0e0e0"></path><path d="M417.32,226a6.73,6.73,0,0,1,.87,1l2.21,2.89c1.86,2.47,4.39,5.89,7.16,9.68s5.25,7.26,7,9.78l2.08,3a6.71,6.71,0,0,1,.7,1.14,7.82,7.82,0,0,1-.87-1l-2.21-2.9c-1.85-2.46-4.38-5.88-7.15-9.68s-5.26-7.25-7-9.77l-2.08-3A5.9,5.9,0,0,1,417.32,226Z" style="fill:#e0e0e0"></path><path d="M455.73,201.15a3,3,0,0,1,.37.42l1,1.26,3.56,4.66c3,3.94,7.25,9.31,12,15.17s9,11.28,11.92,15.28c1.47,2,2.65,3.62,3.44,4.76l.9,1.32c.21.3.31.46.29.47s-.14-.13-.37-.41l-1-1.26-3.56-4.66c-3-3.94-7.25-9.31-12-15.17s-9-11.28-11.92-15.28c-1.47-2-2.65-3.62-3.44-4.76l-.9-1.32A2.11,2.11,0,0,1,455.73,201.15Z" style="fill:#e0e0e0"></path><path d="M465.48,158.94a6.27,6.27,0,0,1,.87,1l2.21,2.9c1.86,2.46,4.39,5.88,7.16,9.68s5.25,7.25,7,9.77l2.08,3a6.27,6.27,0,0,1,.7,1.14,7.75,7.75,0,0,1-.87-1l-2.21-2.9c-1.85-2.46-4.39-5.89-7.15-9.69s-5.26-7.25-7-9.76l-2.09-3A6.71,6.71,0,0,1,465.48,158.94Z" style="fill:#e0e0e0"></path><path d="M465.42,285a21.45,21.45,0,0,1,2.14,2.63l2.22,2.94,1.29,1.74.68.93,0,0h0l-.42.3h0l0-.06-.08-.12-.18-.24-.35-.48-.35-.48-.17-.24-.09-.12,0-.06h0l.42-.31h0l0,0,.68.94c.43.6.86,1.19,1.26,1.76.78,1.1,1.49,2.11,2.13,3a21.76,21.76,0,0,1,1.84,2.85,22.66,22.66,0,0,1-2.14-2.63L472,294.43l-1.3-1.74-.68-.93,0,0h0l.42-.3h0v0l0,.05.09.12.17.24.35.48.35.48.18.24.08.12,0,.06h0l-.42.31s0,0,0,0l0,0-.68-.94c-.43-.6-.86-1.19-1.26-1.76l-2.12-3A21.32,21.32,0,0,1,465.42,285Z" style="fill:#e0e0e0"></path><path d="M356.79,133.64c.12-.09,10.21,13.55,22.53,30.46s22.23,30.68,22.11,30.77-10.2-13.55-22.53-30.47S356.68,133.72,356.79,133.64Z" style="fill:#e0e0e0"></path><path d="M366.54,91.42a6.91,6.91,0,0,1,.87,1l2.22,2.9c1.85,2.46,4.38,5.89,7.15,9.68s5.25,7.26,7,9.77l2.08,3a6.06,6.06,0,0,1,.71,1.14,6.27,6.27,0,0,1-.87-1l-2.22-2.9c-1.85-2.46-4.38-5.88-7.15-9.68s-5.25-7.25-7-9.77l-2.08-3A6.83,6.83,0,0,1,366.54,91.42Z" style="fill:#e0e0e0"></path><path d="M422.51,74.74a2.38,2.38,0,0,1,.37.42l1,1.25,3.57,4.67c3,3.94,7.24,9.31,12,15.17s9,11.27,11.92,15.27c1.47,2,2.64,3.63,3.44,4.77l.9,1.31a3.25,3.25,0,0,1,.29.48s-.14-.13-.37-.42l-1-1.25-3.56-4.67c-3-3.94-7.25-9.31-12-15.17s-9-11.27-11.92-15.27c-1.46-2-2.64-3.63-3.43-4.77l-.91-1.31A2,2,0,0,1,422.51,74.74Z" style="fill:#e0e0e0"></path><path d="M445.7,58.43a6.91,6.91,0,0,1,.87,1l2.22,2.9c1.85,2.47,4.38,5.89,7.15,9.68s5.25,7.26,7,9.78l2.08,3a7.36,7.36,0,0,1,.71,1.14,6.27,6.27,0,0,1-.87-1c-.59-.76-1.33-1.74-2.22-2.9-1.85-2.46-4.38-5.88-7.15-9.68s-5.25-7.25-7-9.77l-2.08-3A6.83,6.83,0,0,1,445.7,58.43Z" style="fill:#e0e0e0"></path><path d="M40.24,46a6.27,6.27,0,0,1,.87,1l2.22,2.9c1.85,2.46,4.38,5.88,7.15,9.68s5.25,7.25,7,9.77l2.08,3a7.83,7.83,0,0,1,.71,1.14,6.91,6.91,0,0,1-.87-1l-2.22-2.9c-1.85-2.46-4.38-5.88-7.15-9.68s-5.26-7.26-7-9.77C42.19,49,41.5,48,41,47.16A6.06,6.06,0,0,1,40.24,46Z" style="fill:#e0e0e0"></path><path d="M417,121.6a21.84,21.84,0,0,1,2.15,2.63l2.21,2.94,1.29,1.75c.23.3.45.61.68.93l0,0h0c.37-.28-.51.37-.42.3h0l0-.06-.09-.12-.17-.24-.35-.48-.35-.48-.18-.24-.08-.11-.05-.06v0h0l.42-.31h0l0,0,.67.93,1.27,1.76,2.12,3a20.58,20.58,0,0,1,1.85,2.85,23.09,23.09,0,0,1-2.15-2.63c-.65-.88-1.4-1.87-2.21-2.94-.41-.56-.84-1.15-1.29-1.75l-.68-.93,0,0s0,0,0,0l.42-.3h0l.05.06.08.12.18.24.35.48.35.48.17.24.09.12,0,0v0h0c.1-.06-.79.58-.41.31h0l0,0-.67-.93L421,127.46l-2.12-3A23.28,23.28,0,0,1,417,121.6Z" style="fill:#e0e0e0"></path><path d="M287.68,324.28c.12-.09,10.21,13.55,22.53,30.46s22.23,30.68,22.11,30.77S322.12,372,309.79,355,287.57,324.36,287.68,324.28Z" style="fill:#e0e0e0"></path><path d="M297.43,282.06a6.91,6.91,0,0,1,.87,1l2.22,2.9c1.85,2.46,4.38,5.88,7.15,9.68s5.25,7.26,7,9.77l2.08,3a6.83,6.83,0,0,1,.71,1.14,6.27,6.27,0,0,1-.87-1l-2.22-2.9c-1.85-2.46-4.38-5.88-7.15-9.68s-5.25-7.25-7-9.77l-2.08-3A6.06,6.06,0,0,1,297.43,282.06Z" style="fill:#e0e0e0"></path><path d="M335.84,257.2s.14.13.37.42l1,1.26,3.56,4.66c3,3.94,7.25,9.31,12,15.17s9,11.28,11.93,15.27c1.46,2,2.64,3.63,3.43,4.77l.91,1.31a2,2,0,0,1,.28.48,2.5,2.5,0,0,1-.37-.41l-1-1.26-3.57-4.66c-3-3.94-7.24-9.32-12-15.18s-9-11.27-11.92-15.27c-1.47-2-2.64-3.63-3.44-4.76-.36-.54-.66-1-.9-1.32A2.73,2.73,0,0,1,335.84,257.2Z" style="fill:#e0e0e0"></path><path d="M345.59,215a5.74,5.74,0,0,1,.87,1c.59.76,1.33,1.74,2.22,2.9,1.85,2.46,4.38,5.88,7.15,9.68s5.25,7.25,7,9.77l2.08,3a8.54,8.54,0,0,1,.71,1.14,5.74,5.74,0,0,1-.87-1c-.59-.76-1.33-1.73-2.22-2.9-1.85-2.46-4.38-5.88-7.15-9.68s-5.26-7.25-7-9.77l-2.08-3A6.46,6.46,0,0,1,345.59,215Z" style="fill:#e0e0e0"></path><path d="M345.53,341a21,21,0,0,1,2.15,2.63l2.21,2.94,1.29,1.74.68.93,0,0h0l-.42.3h0v0l-.05-.06-.08-.11-.18-.24-.35-.48-.35-.48-.17-.24-.09-.12,0-.06v0h0c-.38.27.5-.37.41-.31h0l0,0,.68.93,1.27,1.77c.77,1.1,1.48,2.11,2.12,3a24.23,24.23,0,0,1,1.85,2.85,21.84,21.84,0,0,1-2.15-2.63l-2.21-2.94c-.42-.56-.85-1.14-1.29-1.75l-.68-.92,0,0h0c-.09.06.8-.58.42-.31h0l0,.06.09.12.17.24.35.48.35.48.18.24.08.12.05.06h0c.09-.07-.79.58-.42.3h0l0,0-.67-.93-1.27-1.76-2.12-3A21.7,21.7,0,0,1,345.53,341Z" style="fill:#e0e0e0"></path><path d="M236.91,189.68c.11-.08,10.2,13.56,22.53,30.46s22.22,30.69,22.11,30.77S271.34,237.36,259,220.45,236.79,189.77,236.91,189.68Z" style="fill:#e0e0e0"></path><path d="M246.66,147.47a7.82,7.82,0,0,1,.87,1l2.21,2.9c1.85,2.46,4.38,5.88,7.15,9.68s5.26,7.26,7,9.77c.84,1.2,1.53,2.21,2.08,3a6.06,6.06,0,0,1,.71,1.14,6.27,6.27,0,0,1-.87-1c-.58-.77-1.33-1.74-2.22-2.9-1.85-2.46-4.38-5.88-7.15-9.68s-5.25-7.26-7-9.77l-2.08-3A6.27,6.27,0,0,1,246.66,147.47Z" style="fill:#e0e0e0"></path><path d="M285.07,122.61a2.38,2.38,0,0,1,.37.42l1,1.25L290,129c3,3.94,7.24,9.31,12,15.16s9,11.28,11.92,15.28c1.47,2,2.64,3.63,3.43,4.77l.91,1.31a3.25,3.25,0,0,1,.29.48s-.15-.13-.37-.42-.59-.75-1-1.25l-3.56-4.67c-3-3.94-7.25-9.31-12-15.17s-9-11.27-11.92-15.27c-1.47-2-2.64-3.63-3.43-4.77l-.91-1.31A2,2,0,0,1,285.07,122.61Z" style="fill:#e0e0e0"></path><path d="M294.81,80.39a6.91,6.91,0,0,1,.87,1l2.22,2.9c1.85,2.47,4.38,5.89,7.15,9.68s5.26,7.26,7,9.78l2.08,3a6.46,6.46,0,0,1,.71,1.14,6.27,6.27,0,0,1-.87-1c-.59-.76-1.33-1.74-2.22-2.9-1.85-2.46-4.38-5.88-7.15-9.68s-5.25-7.25-7-9.77l-2.08-3A7.83,7.83,0,0,1,294.81,80.39Z" style="fill:#e0e0e0"></path><path d="M294.75,206.44a21.84,21.84,0,0,1,2.15,2.63l2.21,2.94,1.29,1.75.68.93,0,0h0c.37-.28-.51.37-.42.3h0v0l0-.06-.09-.12-.17-.23-.35-.49-.35-.48-.18-.24-.08-.11-.05-.06v0h0l.42-.31h0l0,0,.67.93,1.27,1.77c.78,1.09,1.49,2.1,2.12,3a20.58,20.58,0,0,1,1.85,2.85,23.09,23.09,0,0,1-2.15-2.63c-.65-.88-1.4-1.87-2.21-2.94-.41-.56-.84-1.15-1.29-1.75l-.68-.92,0,0s0,0,0,0l.42-.3h0l.05.06.08.12.18.24.35.48.35.48.17.24.09.12,0,.06h0c.1-.06-.79.58-.41.31h0l0,0-.67-.93-1.27-1.76-2.12-3A23.28,23.28,0,0,1,294.75,206.44Z" style="fill:#e0e0e0"></path><path d="M115.93,240.07a6.92,6.92,0,0,1,1.07,1.07c.67.71,1.6,1.76,2.73,3.08,2.26,2.65,5.26,6.4,8.33,10.74s5.61,8.42,7.35,11.43c.88,1.5,1.56,2.73,2,3.6a8.25,8.25,0,0,1,.65,1.36,7.79,7.79,0,0,1-.83-1.26l-2.14-3.51c-1.82-3-4.41-7-7.46-11.32s-6-8.1-8.19-10.8l-2.6-3.19A10.56,10.56,0,0,1,115.93,240.07Z" style="fill:#e0e0e0"></path><path d="M119.63,51.52c.12-.09,4.54,5.22,9.89,11.85s9.59,12.09,9.47,12.18-4.53-5.21-9.88-11.85S119.52,51.61,119.63,51.52Z" style="fill:#e0e0e0"></path></g><g id="freepik--Character--inject-263"><path d="M221.94,85.37c-2.75-5.55-8.95-8.74-15.1-9.51s-12.35.5-18.42,1.75l-3.94,3.31a82.84,82.84,0,0,0-6,37.57c.42,5.58,1.48,11.3,4.62,15.93,4.31,6.36,11.8,9.66,18.88,12.63,1.25.52,2.71,1,3.89.37a4.53,4.53,0,0,0,1.64-2.35c5.72-13.89,11.47-27.86,14.84-42.5C223.65,96.87,224.53,90.62,221.94,85.37Z" style="fill:#FFB648"></path><g style="opacity:0.30000000000000004"><path d="M223.88,85.59c-2.75-5.56-8.95-8.74-15.1-9.51s-12.35.49-18.42,1.75l-3.94,3.31a82.93,82.93,0,0,0-6,37.56c.42,5.58,1.48,11.31,4.62,15.94,4.31,6.36,11.8,9.65,18.88,12.63,1.25.52,2.72,1,3.89.36a4.49,4.49,0,0,0,1.64-2.35c5.72-13.89,11.47-27.85,14.84-42.49C225.59,97.08,226.47,90.83,223.88,85.59Z"></path></g><path d="M191.45,79.8l-2.1-2.08c-2.79,1.24-4.08,4.54-4.55,7.61s-.4,6.29-1.68,9.11c-1,2.17-2.76,4.18-2.55,6.56s2.21,4.09,2.22,6.36.06,10.78.06,13c0,14.08,12.21,22.41,21.66,21.27,9.26-.82-1.25-6.25,8-8.42C210.08,116.88,199.8,93.89,191.45,79.8Z" style="fill:#263238"></path><path d="M204.54,143.7Z" style="fill:#ffbe9d"></path><path d="M187.3,94.33c-.64-11.08,7.24-21.21,18.23-22.55a20.5,20.5,0,0,1,22.93,18.69l2.73,46.78a4.18,4.18,0,0,1-.7,2.55,18.71,18.71,0,0,1-11.92,7.77c-4.22.6-8.91,5.89-12.5,3.86-1.21-.69-1.54-8.42-1.56-9.84l-.19-10.47a.07.07,0,0,0-.07-.07,13.84,13.84,0,0,1-2.88-.08c-2.71-.68-9.63-3.39-12-13.75C188.65,113.78,187.87,104,187.3,94.33Z" style="fill:#ffbe9d"></path><path d="M202.38,109.62a11.49,11.49,0,0,0-3-.32c-.47,0-.91-.08-1-.39a2.39,2.39,0,0,1,.22-1.4c.36-1.15.74-2.36,1.14-3.62,1.58-5.16,2.7-9.39,2.49-9.45s-1.66,4.07-3.24,9.23c-.37,1.27-.74,2.48-1.08,3.64a2.78,2.78,0,0,0-.13,1.84,1.16,1.16,0,0,0,.81.62,3.24,3.24,0,0,0,.79.06A12.45,12.45,0,0,0,202.38,109.62Z" style="fill:#263238"></path><path d="M190.3,98.24c.2.23,1.4-.81,3.13-.86s3,.87,3.19.63-.12-.52-.68-1a4.09,4.09,0,0,0-2.56-.78,4,4,0,0,0-2.49,1C190.37,97.72,190.2,98.14,190.3,98.24Z" style="fill:#263238"></path><path d="M207.8,98.69c.24.22,1.49-.94,3.37-1.1s3.35.71,3.53.45-.16-.54-.8-1a4.59,4.59,0,0,0-2.85-.66,4.49,4.49,0,0,0-2.65,1.18C207.85,98.13,207.69,98.59,207.8,98.69Z" style="fill:#263238"></path><path d="M204.32,131.05s7,.07,15.42-5.81c0,0-2.17,9.45-15.37,9.15Z" style="fill:#eb996e"></path><path d="M203.42,113.94a3.25,3.25,0,0,1,2.84-1.42,3,3,0,0,1,2.13,1,1.91,1.91,0,0,1,.28,2.16,2.23,2.23,0,0,1-2.34.77,6.86,6.86,0,0,1-2.39-1.22,2.25,2.25,0,0,1-.56-.5.65.65,0,0,1,0-.68" style="fill:#eb996e"></path><path d="M207.78,110.5c-.3,0-.17,2-1.77,3.49s-3.69,1.45-3.69,1.72.49.35,1.37.31a4.9,4.9,0,0,0,3.09-1.33,4.3,4.3,0,0,0,1.36-2.91C208.16,111,207.91,110.47,207.78,110.5Z" style="fill:#263238"></path><path d="M207.52,91.44c.21.48,2,.1,4.14.2s3.9.54,4.15.07c.11-.22-.22-.66-.95-1.08a6.66,6.66,0,0,0-3.12-.84,6.85,6.85,0,0,0-3.19.63C207.79,90.79,207.43,91.21,207.52,91.44Z" style="fill:#263238"></path><path d="M189.93,91.83c.36.41,1.82,0,3.56,0s3.21.29,3.56-.14c.15-.21-.08-.62-.72-1a5.57,5.57,0,0,0-2.89-.69,5.48,5.48,0,0,0-2.85.82C190,91.2,189.77,91.62,189.93,91.83Z" style="fill:#263238"></path><path d="M203.91,69.44a6.12,6.12,0,0,1,4.68-2.69c8-1.24,17,3.69,21.49,10.59s4.74,17.19,1.45,24.76l-5-3.2c-10.06-4.23-17.16-14.11-23.63-24.33C202,73.18,203.09,70.87,203.91,69.44Z" style="fill:#263238"></path><path d="M191.56,74c3.36-3.9,5.8-7.78,12.77-5.07,1,2-1,4.57-2.77,6.08-2.53,2.22-4.74,3.71-6.4,5.29-3.35,3.21-7.17,14-7.49,19.84,0,.37-.65-5-1-5.1s-2.36-2.43-2.1-5.66C185.44,78.31,188.2,77.85,191.56,74Z" style="fill:#263238"></path><path d="M208.59,66.75a2.72,2.72,0,0,0-1.57.14A6.64,6.64,0,0,0,203.85,69a5.64,5.64,0,0,0-.63.93,5,5,0,0,0-.37,1,11,11,0,0,0-.41,1.68,2.43,2.43,0,0,0,.15,1.6c.08,0,0-.61.19-1.53a12.9,12.9,0,0,1,.5-1.61,5,5,0,0,1,.35-.89,5.81,5.81,0,0,1,.59-.84,7.46,7.46,0,0,1,2.91-2.11C208,66.88,208.6,66.83,208.59,66.75Z" style="fill:#455a64"></path><path d="M191.89,101.62a1.54,1.54,0,0,0,1.44,1.6,1.47,1.47,0,0,0,1.6-1.37,1.54,1.54,0,0,0-1.44-1.6A1.46,1.46,0,0,0,191.89,101.62Z" style="fill:#263238"></path><path d="M208.68,101.73a1.54,1.54,0,0,0,1.44,1.6,1.48,1.48,0,0,0,1.6-1.38,1.56,1.56,0,0,0-1.44-1.6A1.47,1.47,0,0,0,208.68,101.73Z" style="fill:#263238"></path><path d="M226.52,98.9c.19-.1,7.6-3.09,8.07,4.87s-7.45,6.8-7.48,6.57S226.52,98.9,226.52,98.9Z" style="fill:#ffbe9d"></path><path d="M229.31,107.18s.15.09.38.18a1.35,1.35,0,0,0,1,0c.8-.36,1.42-1.74,1.37-3.18a4.58,4.58,0,0,0-.5-2,1.56,1.56,0,0,0-1.08-1,.69.69,0,0,0-.78.43c-.09.23,0,.38-.07.4s-.18-.12-.14-.45a1,1,0,0,1,.28-.52,1,1,0,0,1,.74-.25,1.89,1.89,0,0,1,1.49,1.15,4.78,4.78,0,0,1,.61,2.18c0,1.61-.67,3.16-1.78,3.56a1.42,1.42,0,0,1-1.26-.13C229.34,107.37,229.29,107.19,229.31,107.18Z" style="fill:#eb996e"></path><path d="M198.76,101a12.55,12.55,0,0,0-.24-1.78,7.34,7.34,0,0,0-2.57-4,7,7,0,0,0-6.69-1.13,6.87,6.87,0,0,0-1.81,1,6.76,6.76,0,0,0-1.51,1.51,7.32,7.32,0,0,0-.14,8.53,6.79,6.79,0,0,0,1.47,1.55,6.36,6.36,0,0,0,1.78,1,6.86,6.86,0,0,0,3.71.38,7,7,0,0,0,3-1.29,7.29,7.29,0,0,0,2.69-3.94,12,12,0,0,0,.3-1.78s0,0,0,.12v.35a3.14,3.14,0,0,1,0,.57c0,.22-.07.48-.15.77a7.32,7.32,0,0,1-2.68,4.06,7,7,0,0,1-3.08,1.36,7.12,7.12,0,0,1-3.84-.37,6.74,6.74,0,0,1-1.84-1,6.91,6.91,0,0,1-1.53-1.61,7.55,7.55,0,0,1,.14-8.84,6.87,6.87,0,0,1,1.58-1.56,6.45,6.45,0,0,1,1.87-1,7.1,7.1,0,0,1,3.85-.25,7.25,7.25,0,0,1,3,1.46,7.43,7.43,0,0,1,2.55,4.15,7,7,0,0,1,.12.77,3,3,0,0,1,0,.57v.35C198.77,101,198.77,101,198.76,101Z" style="fill:#455a64"></path><path d="M218.46,101.31a11.93,11.93,0,0,0-.25-1.78,7.35,7.35,0,0,0-2.56-4,7.11,7.11,0,0,0-3-1.39,7,7,0,0,0-3.72.26,6.72,6.72,0,0,0-1.81,1,6.8,6.8,0,0,0-1.52,1.51,7.3,7.3,0,0,0-.13,8.53,6.83,6.83,0,0,0,1.47,1.56,6.68,6.68,0,0,0,1.77,1,7,7,0,0,0,6.73-.91,7.35,7.35,0,0,0,2.69-3.94,12,12,0,0,0,.3-1.78s0,0,0,.12,0,.21,0,.35a3.25,3.25,0,0,1-.06.57,5.06,5.06,0,0,1-.14.77,7.37,7.37,0,0,1-2.68,4.07,7.1,7.1,0,0,1-6.92,1,6.49,6.49,0,0,1-1.84-1,6.91,6.91,0,0,1-1.53-1.61,7.55,7.55,0,0,1,.14-8.84,7.21,7.21,0,0,1,3.45-2.54,7.15,7.15,0,0,1,6.89,1.21,7.33,7.33,0,0,1,2.54,4.16,5,5,0,0,1,.13.77,4,4,0,0,1,0,.56v.36C218.47,101.27,218.47,101.31,218.46,101.31Z" style="fill:#455a64"></path><path d="M204.39,100.77s-.24-.31-.71-.7a3.61,3.61,0,0,0-2.16-.82,3.56,3.56,0,0,0-2.19.74c-.49.37-.7.7-.74.67a1.94,1.94,0,0,1,.62-.82,3.42,3.42,0,0,1,2.31-.86,3.49,3.49,0,0,1,2.28.94A1.79,1.79,0,0,1,204.39,100.77Z" style="fill:#455a64"></path><path d="M228.31,98.39a6.08,6.08,0,0,1-1.44.31c-.9.14-2.15.28-3.53.4l-3.53.33a9.05,9.05,0,0,1-1.46.11,7.27,7.27,0,0,1,1.44-.3c.9-.15,2.15-.28,3.53-.41l3.53-.32A10.06,10.06,0,0,1,228.31,98.39Z" style="fill:#455a64"></path><path d="M187.39,105.49a9.52,9.52,0,0,1-1.53-2.51,9.31,9.31,0,0,1-.44-2.93,2.09,2.09,0,0,0-.15.88,5.73,5.73,0,0,0,1.44,4C187.08,105.33,187.37,105.52,187.39,105.49Z" style="fill:#fff"></path><path d="M186.15,97.27c0-.06-.33.09-.49.44s-.1.68,0,.67.13-.26.27-.55S186.2,97.33,186.15,97.27Z" style="fill:#fff"></path><path d="M205.38,103.92s-.1-.42-.22-1.09a8.06,8.06,0,0,1,0-2.64,7.79,7.79,0,0,1,.91-2.46c.35-.59.62-.91.59-.94a2.81,2.81,0,0,0-.74.83,6.51,6.51,0,0,0-1,2.52,6.69,6.69,0,0,0,.06,2.72A2.71,2.71,0,0,0,205.38,103.92Z" style="fill:#fff"></path><path d="M232.49,110.23a3.39,3.39,0,0,0,.26.45,2.81,2.81,0,0,1,.33,1.32,2.48,2.48,0,0,1-.72,1.81,2.54,2.54,0,0,1-2.21.72,2.6,2.6,0,0,1-1.82-1.46,2.5,2.5,0,0,1-.05-1.95A2.71,2.71,0,0,1,229,110c.25-.22.41-.31.4-.33a1.08,1.08,0,0,0-.46.24,2.72,2.72,0,0,0-.88,1.13,2.69,2.69,0,0,0,0,2.14,2.82,2.82,0,0,0,2,1.62,2.74,2.74,0,0,0,2.42-.81,2.64,2.64,0,0,0,.74-2,2.79,2.79,0,0,0-.43-1.37A1.2,1.2,0,0,0,232.49,110.23Z" style="fill:#e0e0e0"></path><path d="M189.42,116.37a2.13,2.13,0,0,1-1.35.09,2.74,2.74,0,0,1-1.25-.79A3.39,3.39,0,0,1,186,114a3,3,0,0,1,.22-1.8,3.3,3.3,0,0,1,.91-1.2,5.15,5.15,0,0,1,1.22-.68.92.92,0,0,0-.38.06,2.86,2.86,0,0,0-1,.47,3.41,3.41,0,0,0-1,1.24,3.2,3.2,0,0,0-.25,2,3.47,3.47,0,0,0,.89,1.76,2.72,2.72,0,0,0,1.38.8,1.81,1.81,0,0,0,1.07-.06C189.33,116.48,189.43,116.38,189.42,116.37Z" style="fill:#e0e0e0"></path><path d="M218.64,93.77c1.93,3.9,3.88,8.51,2,12.43-1,2.08-3,3.64-3.65,5.86-.81,2.87.88,6,.09,8.87-.54,2-2.14,3.44-3.32,5.11a13.88,13.88,0,0,0-.22,15.32c3.81-1.51,8-1.23,12.14-1.34s-.7-1.17,2.22-4c2.06-2,2.54-6.21,3.09-9,1.35-7,7.39-17.1,3.62-23.18S227,97.41,220.14,95.5" style="fill:#263238"></path><path d="M183.17,84.33v5.46c3.55-6.86,8.13-12.15,14.85-14.16,1.95-.93,8,.12,9.62,1.54,5.83,5,18.56,18.3,17.48,37.67-.6,10.65-19.05,30.66-19.05,30.66l32.72-11s11.61-19.24,8.68-34.16S235.81,68,226.52,64.6c-2-.74-20.26-1-27.93,2.75C187.83,72.65,185.06,76.55,183.17,84.33Z" style="fill:#FFB648"></path><g style="opacity:0.30000000000000004"><path d="M234.45,71.58c-.53-1-2.17-.25-2.58.81s-.31,2.36-1.06,3.21c-1,1.09-2.76.85-4,.08s-2.15-2-3.39-2.7-3.07-.88-3.94.27a15.28,15.28,0,0,0-.83,1.73c-.95,1.59-3.36,1.67-5,.73s-2.66-2.54-3.86-4S207.07,69,205.22,69c-1.43,0-2.72.82-4.12,1.12s-3.24-.29-3.38-1.71l0-.62A29,29,0,0,1,207.2,65c5.43-.6,15.92-1.56,19.32-.41A17.43,17.43,0,0,1,233.76,70c1.28,1.53,1.56,1.89,1.56,1.89Z" style="fill:#fff"></path></g><path d="M242.37,89.41a70.16,70.16,0,0,0-2.65-6.73,70.2,70.2,0,0,0-3.8-6.16,6.68,6.68,0,0,1,1.48,1.55,25.27,25.27,0,0,1,2.78,4.37A24.36,24.36,0,0,1,242,87.29,7.12,7.12,0,0,1,242.37,89.41Z" style="fill:#fff"></path><path d="M230.28,92.23a38.8,38.8,0,0,0-3.37-7.46,39.63,39.63,0,0,0-5.27-6.27A8.35,8.35,0,0,1,223.58,80a22.18,22.18,0,0,1,3.77,4.52,22.45,22.45,0,0,1,2.45,5.35A8,8,0,0,1,230.28,92.23Z" style="fill:#fff"></path><path d="M233.15,98.91c-.15,0-.24-.71-.45-1.54s-.46-1.5-.33-1.57.61.53.84,1.44S233.29,98.92,233.15,98.91Z" style="fill:#fff"></path><path d="M186,81.47a11.61,11.61,0,0,1,2.09-5.29,11.75,11.75,0,0,1,4-4,45.15,45.15,0,0,0-3.57,4.32A42.7,42.7,0,0,0,186,81.47Z" style="fill:#fff"></path><path d="M204.94,61.6a18.86,18.86,0,0,1-2.09-3.91,19,19,0,0,1-1.61-4.13,19.12,19.12,0,0,1,2.08,3.91A18.79,18.79,0,0,1,204.94,61.6Z" style="fill:#263238"></path><path d="M207.62,56a5.9,5.9,0,0,1-.05,2.43,5.94,5.94,0,0,1-.56,2.37,6,6,0,0,1,0-2.43A5.72,5.72,0,0,1,207.62,56Z" style="fill:#263238"></path><path d="M196.26,59.11A7.81,7.81,0,0,1,199,60a7.72,7.72,0,0,1,2.5,1.35,8,8,0,0,1-2.7-.87A8,8,0,0,1,196.26,59.11Z" style="fill:#263238"></path><path d="M234.61,128.28a5.35,5.35,0,0,1,.14-.79c.11-.57.27-1.32.46-2.26.42-2,1-4.78,1.63-8.3A69.73,69.73,0,0,0,238,104.48a35.94,35.94,0,0,0-.75-7.31,24.46,24.46,0,0,0-2.71-7.36A48.17,48.17,0,0,0,230,83.32,56.5,56.5,0,0,0,224.88,78a51.65,51.65,0,0,0-10.2-7.18A50.5,50.5,0,0,0,207,67.44c-.94-.35-1.69-.53-2.19-.71a4.71,4.71,0,0,1-.76-.27,4,4,0,0,1,.79.17c.51.14,1.27.29,2.22.62a46.74,46.74,0,0,1,7.83,3.24,51.19,51.19,0,0,1,10.35,7.15A55.06,55.06,0,0,1,230.38,83,48.63,48.63,0,0,1,235,89.55a24.53,24.53,0,0,1,2.76,7.52,36.26,36.26,0,0,1,.73,7.41A67.43,67.43,0,0,1,237.2,117c-.65,3.53-1.31,6.34-1.79,8.29-.23.93-.42,1.67-.56,2.23A4.46,4.46,0,0,1,234.61,128.28Z" style="fill:#263238"></path><path d="M180,406.71,168.57,437.1l-38.13-13.62c1.52-3.56,25.4-3.12,25.4-3.12l7.14-20.6Z" style="fill:#FFB648"></path><g style="opacity:0.6000000000000001"><path d="M166.69,422.23a1.67,1.67,0,0,1,.44,2.16,1.59,1.59,0,0,1-2.14.46,1.74,1.74,0,0,1-.46-2.29,1.66,1.66,0,0,1,2.28-.23" style="fill:#fff"></path></g><g style="opacity:0.6000000000000001"><path d="M168.57,437.1l1-3.12-36.94-11.89s-2,.13-2.19,1.39Z" style="fill:#fff"></path></g><path d="M155.14,420.5c-.06.19.84.61,1.55,1.53s.91,1.88,1.1,1.87.31-1.18-.56-2.29S155.16,420.32,155.14,420.5Z" style="fill:#263238"></path><path d="M149.53,420.45c-.11.16.58.77.93,1.78s.24,1.91.43,2,.68-1,.22-2.21S149.6,420.27,149.53,420.45Z" style="fill:#263238"></path><path d="M145.69,424.26c.16.1.75-.73.64-1.92s-.84-1.91-1-1.78.21.86.29,1.84S145.51,424.18,145.69,424.26Z" style="fill:#263238"></path><path d="M157.26,415.51c0,.2,1,.25,2,.69s1.73,1.08,1.89.95-.4-1.07-1.62-1.58S157.22,415.33,157.26,415.51Z" style="fill:#263238"></path><g style="opacity:0.30000000000000004"><path d="M155.76,420.24c.48-1,.78-2.39,1.32-3.44a17.82,17.82,0,0,1,3.4,3.83c.59.78,1.05,1.88.49,2.69a1.87,1.87,0,0,1-2.37.37,5.42,5.42,0,0,1-1.77-1.91,4,4,0,0,1-7.22,0,6.55,6.55,0,0,1-3.36,1.2,2.4,2.4,0,0,1-2.38-2.35Z" style="fill:#fff"></path></g><path d="M155.19,420.9a20,20,0,0,1-5,.39,20.12,20.12,0,0,1-5-.35,30.1,30.1,0,0,1,5-.18A31.64,31.64,0,0,1,155.19,420.9Z" style="fill:#fff"></path><path d="M309.11,431.17l1.1-15.9L296.44,399l15.89-10.94.45.63,8.66,12.18,11,8.12L316.3,437.47l-16.59-.58S301.05,432.94,309.11,431.17Z" style="fill:#FFB648"></path><g style="opacity:0.6000000000000001"><polygon points="332.42 409 316.3 437.47 299.71 436.89 301.67 434.46 315.19 434.19 330.08 407.28 332.42 409" style="fill:#fff"></polygon></g><path d="M309.47,423.88c.12.17,1.1-.34,2.38-.26s2.2.65,2.34.49-.74-1.14-2.31-1.21S309.33,423.74,309.47,423.88Z" style="fill:#263238"></path><path d="M309.88,419.94c.16.12.94-.83,2.27-1s2.37.43,2.48.26-.12-.35-.58-.63a3.12,3.12,0,0,0-3.82.63C309.88,419.56,309.8,419.89,309.88,419.94Z" style="fill:#263238"></path><path d="M310,414.86c.18.1.78-.84,1.95-1.2s2.2.06,2.29-.12-.16-.32-.61-.51a2.88,2.88,0,0,0-3.42,1.07C309.9,414.51,309.87,414.82,310,414.86Z" style="fill:#263238"></path><path d="M305.65,410.77c.2.08.7-.85,1.75-1.48s2.09-.69,2.11-.9-1.22-.51-2.49.28S305.45,410.74,305.65,410.77Z" style="fill:#263238"></path><path d="M303.61,407.29c.08.06.65-.59,1.51-1.68l1.47-1.94a5.47,5.47,0,0,0,.82-1.32,1.38,1.38,0,0,0-.07-1,1,1,0,0,0-1-.56,3.08,3.08,0,0,0-1.58.75,5.8,5.8,0,0,0-1,1.12,5.61,5.61,0,0,0-1,2.36,3.08,3.08,0,0,0,.29,2.28,19.18,19.18,0,0,1,.21-2.18,5.86,5.86,0,0,1,1-2.07,4.92,4.92,0,0,1,.94-.94,2.7,2.7,0,0,1,1.17-.59.32.32,0,0,1,.31.16.65.65,0,0,1,0,.48,5.37,5.37,0,0,1-.68,1.13l-1.34,2A6.77,6.77,0,0,0,303.61,407.29Z" style="fill:#263238"></path><path d="M303,407.76c.07,0,0-.87-.82-1.9a4.16,4.16,0,0,0-4.89-1.06.76.76,0,0,0-.28.58,1,1,0,0,0,.18.53,2.65,2.65,0,0,0,.58.55,7.45,7.45,0,0,0,1.15.71,7.2,7.2,0,0,0,2.16.68,3.39,3.39,0,0,0,2.06-.11c0-.12-.79-.09-2-.39a8.08,8.08,0,0,1-1.95-.78,7,7,0,0,1-1-.68,2.33,2.33,0,0,1-.42-.39c-.07-.15-.05-.1,0-.15a1.31,1.31,0,0,1,.49-.16,4.53,4.53,0,0,1,.62-.07,3.82,3.82,0,0,1,1.18.13,4,4,0,0,1,1.76,1C302.66,407,302.88,407.81,303,407.76Z" style="fill:#263238"></path><g style="opacity:0.6000000000000001"><path d="M319.2,408a2,2,0,1,0,2-1.89A2,2,0,0,0,319.2,408Z" style="fill:#fff"></path></g><path d="M206.07,221.56S180.19,305,172.49,325.61l38.82,3.89Z" style="fill:#FFB648"></path><path d="M210.59,223.42S184.7,306.9,177,327.47l38.82,3.89Z" style="opacity:0.30000000000000004"></path><path d="M205.12,228.75v27.8s-31.83,80.35-32.48,81.63l-19.19,72,27.45,10.67s15.21-53,17.17-63.62l2.35-5.48,38.77-58.35s20-27,17.62-52.48l-6.66-23.11S227.44,230.71,205.12,228.75Z" style="fill:#263238"></path><path d="M217.26,240.5l32.14,107,49.14,62.78,26.26-16.88S287,343.27,283.86,335.83s-8.64-60.09-8.64-60.09-2.74-29-9.79-39.94a90.54,90.54,0,0,0-15.28-18L217.26,240.5Z" style="fill:#263238"></path><path d="M202.84,145.93l33-12,9.95,1.79,17.14,65.89,29,117.64s-79.37,22.45-100,5.41l10.32-66.48,3-40.45c-3.51-12.16-7.46-27.57-8.68-39.33S202.84,145.93,202.84,145.93Z" style="fill:#FFB648"></path><path d="M233.78,135s11.61-2,14.07,1.65,30.87,49.9,31.2,59.49-13.83,54.32-13.83,54.32l-26.81-9.32s13.21-42.9,12.55-45.94S217.92,163.77,233.78,135Z" style="fill:#FFB648"></path><path d="M270.16,253.22a13.15,13.15,0,0,1-1.75.33,18.37,18.37,0,0,1-2.07.25c-.82.07-1.74.18-2.77.18s-2.15.05-3.36,0-2.49-.18-3.84-.32a47.7,47.7,0,0,1-16.75-5.36c-1.18-.67-2.32-1.28-3.31-2s-1.93-1.31-2.75-1.93-1.53-1.22-2.15-1.74-1.14-1-1.54-1.41a11.55,11.55,0,0,1-1.23-1.29,11.16,11.16,0,0,1,1.36,1.14c.43.38.95.84,1.59,1.33s1.34,1.11,2.19,1.68,1.73,1.24,2.76,1.86,2.13,1.26,3.3,1.91a50.35,50.35,0,0,0,16.59,5.31c1.34.15,2.61.32,3.81.36s2.31.09,3.33.09,1.93-.06,2.74-.1a20.64,20.64,0,0,0,2.07-.16A10.62,10.62,0,0,1,270.16,253.22Z" style="fill:#263238"></path><path d="M240.52,241.89l-2.11,5.45s8.72,5.46,15.36,5.64l2.12-5.75Z" style="fill:#ffbe9d"></path><g style="opacity:0.30000000000000004"><path d="M234.16,135.59a22.49,22.49,0,0,0-3.27,15.19,10.15,10.15,0,0,0,1.7,4.7,5,5,0,0,0,4.33,2.14c2.51-.26,4.48-2.91,7-2.64,2,.21,3.28,2.14,4.18,3.92s1.9,3.78,3.79,4.42A5,5,0,0,0,257,161.6a14.62,14.62,0,0,0,2.5-5.06S249.18,137.69,247,135.87,234.16,135.59,234.16,135.59Z" style="fill:#fff"></path></g><path d="M235.81,171.51a4.84,4.84,0,0,1,.29.4l.79,1.19,3,4.65,11.2,17.38,0,0v0a9.37,9.37,0,0,1-.25,2.44c-.15.8-.33,1.62-.52,2.44-.38,1.64-.8,3.34-1.26,5.08-.91,3.48-1.93,7.16-3,11-2.2,7.71-4.69,16.13-7.42,25.07l-.16-.31,26.82,9.31-.33.17c.51-1.67,1.07-3.47,1.63-5.27,2.22-7.24,4.31-14.34,6.22-21.22s3.68-13.54,5-20l.45-2.4c.15-.79.23-1.59.35-2.38a18.6,18.6,0,0,0,.19-2.34,5.5,5.5,0,0,0,0-1.15,7.19,7.19,0,0,0-.18-1.13,46.81,46.81,0,0,0-3-8.46c-2.37-5.33-4.89-10.15-7.24-14.52-4.71-8.73-8.8-15.65-11.63-20.42-2.76-4.57-4.11-6.79-4.46-7.38,0,0,.12.15.33.46l.92,1.39c.79,1.23,1.93,3.06,3.38,5.43,2.89,4.74,7,11.63,11.79,20.35,2.36,4.36,4.91,9.17,7.31,14.51a47.9,47.9,0,0,1,3.07,8.54,9.35,9.35,0,0,1,.19,1.18,5.35,5.35,0,0,1,0,1.2,19.25,19.25,0,0,1-.19,2.4c-.11.8-.2,1.6-.34,2.4l-.45,2.41c-1.28,6.45-3.06,13.12-4.95,20s-4,14-6.21,21.23l-1.64,5.28-.08.25-.25-.09-26.81-9.33-.23-.08.07-.23c2.74-8.92,5.26-17.34,7.48-25q1.66-5.78,3.07-11,.69-2.61,1.28-5.07c.19-.81.37-1.62.53-2.42a10,10,0,0,0,.26-2.3l0,.06-11.07-17.47-2.94-4.7c-.33-.52-.57-.93-.75-1.22S235.81,171.51,235.81,171.51Z" style="fill:#263238"></path><path d="M245.34,135.22c0,.08-1,0-2.53,0a43.32,43.32,0,0,0-6,.46,44.78,44.78,0,0,0-5.93,1.23c-1.49.41-2.38.78-2.42.71a7.73,7.73,0,0,1,2.31-1.07,32,32,0,0,1,6-1.38,31.18,31.18,0,0,1,6.11-.32A8.25,8.25,0,0,1,245.34,135.22Z" style="fill:#263238"></path><path d="M191.9,324.71s0-.16,0-.47.07-.79.12-1.38c.1-1.21.3-3,.57-5.28.54-4.58,1.4-11.19,2.53-19.35,2.24-16.33,5.52-38.87,9.25-63.73.76-5,1.49-9.88,2.2-14.56V220c-1.34-10.74-3.12-20.78-4.63-29.85a90.9,90.9,0,0,1,2.67-40c.56-1.8,1-3.19,1.37-4.12l.39-1.05.14-.35a1.52,1.52,0,0,1-.1.37c-.08.26-.2.61-.34,1.07-.33.93-.75,2.32-1.28,4.13a93.21,93.21,0,0,0-3,15.75,91.29,91.29,0,0,0,.64,24.09c1.53,9,3.34,19.09,4.69,29.86V220c-.71,4.68-1.44,9.57-2.19,14.55-3.73,24.87-7.07,47.39-9.41,63.71-1.17,8.15-2.09,14.76-2.69,19.33-.3,2.28-.53,4.05-.67,5.26-.07.58-.12,1-.17,1.37S191.9,324.71,191.9,324.71Z" style="fill:#263238"></path><path d="M222.59,212.82A23.49,23.49,0,0,1,212,217.9c0-.15,2.47-.93,5.38-2.34S222.5,212.69,222.59,212.82Z" style="fill:#263238"></path><path d="M228.05,225.19a14.06,14.06,0,0,1-2.35-.32c-1.43-.23-3.42-.52-5.63-.73s-4.22-.27-5.67-.3a12.7,12.7,0,0,1-2.37-.11,9.33,9.33,0,0,1,2.36-.26,43.65,43.65,0,0,1,5.73.16,42.93,42.93,0,0,1,5.65.88A9.22,9.22,0,0,1,228.05,225.19Z" style="fill:#263238"></path><path d="M251.83,287.44a1.74,1.74,0,0,1-.44.22,9.51,9.51,0,0,1-1.34.48,13.83,13.83,0,0,1-5.19.39,17,17,0,0,1-7.28-2.59,20.87,20.87,0,0,1-6.48-6.88,30.25,30.25,0,0,1-3.42-8.82,48.33,48.33,0,0,1-1-7.65c-.12-2.19-.13-4-.11-5.19,0-.62,0-1.09,0-1.42a1.91,1.91,0,0,1,0-.49,1.61,1.61,0,0,1,.06.49c0,.39,0,.85.06,1.41.05,1.23.11,3,.27,5.17a52,52,0,0,0,1.12,7.57,30.11,30.11,0,0,0,3.4,8.66,20.62,20.62,0,0,0,6.29,6.75,17.19,17.19,0,0,0,7.06,2.63,14.72,14.72,0,0,0,5.1-.23C251.19,287.67,251.81,287.39,251.83,287.44Z" style="fill:#263238"></path><path d="M268.77,181.44a34.8,34.8,0,0,1-3.09-5.12,35,35,0,0,1-2.64-5.38,34.76,34.76,0,0,1,3.1,5.13A34,34,0,0,1,268.77,181.44Z" style="fill:#fff"></path><path d="M250.43,145.61a15.81,15.81,0,0,1-2.58-3.06,16,16,0,0,1-2.16-3.37,15.08,15.08,0,0,1,2.58,3.06A15,15,0,0,1,250.43,145.61Z" style="fill:#fff"></path><path d="M285.39,309.31c-.14,0-2.69-11.27-5.69-25.25s-5.33-25.33-5.18-25.36S277.2,270,280.21,284,285.53,309.28,285.39,309.31Z" style="fill:#fff"></path><g style="opacity:0.30000000000000004"><path d="M262.91,300a13.74,13.74,0,0,1-22.56,1.47,10.41,10.41,0,0,1-10.53,5.72c-4.24-.57-6.57-4.47-9.23-7.74a27.6,27.6,0,0,0,5.24,7.55,11.18,11.18,0,0,0,8.35,3.28c3.07-.27,6-2.58,6.44-5.63a13,13,0,0,0,22.14-1.41A6.77,6.77,0,0,0,274,299.93,9.2,9.2,0,0,1,262.91,300Z" style="fill:#fff"></path></g><path d="M205.19,169a78.25,78.25,0,0,1,.92-9.06,78.34,78.34,0,0,1,1.45-9,82.44,82.44,0,0,1-.93,9.07A79.84,79.84,0,0,1,205.19,169Z" style="fill:#fff"></path><path d="M204.9,179.75a5.82,5.82,0,0,1-.44-2.37,5.55,5.55,0,0,1,.07-2.42,5.86,5.86,0,0,1,.45,2.37A5.64,5.64,0,0,1,204.9,179.75Z" style="fill:#fff"></path><path d="M253.3,193a26.49,26.49,0,0,1-3.34-4.1,27.3,27.3,0,0,1-2.91-4.4,26.8,26.8,0,0,1,3.33,4.1A27.3,27.3,0,0,1,253.3,193Z" style="fill:#fff"></path><path d="M252.91,198.57c-.15,0-.26-.08-.26-.18s.11-.19.26-.19.26.09.26.19S253.05,198.57,252.91,198.57Z" style="fill:#fff"></path><path d="M252.37,207.74a93.88,93.88,0,0,1-2.78,9.35,94,94,0,0,1-3.26,9.18,89.34,89.34,0,0,1,2.77-9.34A91.29,91.29,0,0,1,252.37,207.74Z" style="fill:#fff"></path><path d="M228.93,206.33a6.87,6.87,0,0,1-1.44,1.41,29.76,29.76,0,0,1-8.39,4.83,7,7,0,0,1-1.94.54c0-.15,2.83-1.18,6.07-3.06S228.83,206.21,228.93,206.33Z" style="fill:#fff"></path><path d="M233,223.26a30.21,30.21,0,0,0-5.57-1.88,29.68,29.68,0,0,0-5.88-.23,11.05,11.05,0,0,1,6-.28A11.2,11.2,0,0,1,233,223.26Z" style="fill:#fff"></path><path d="M244.76,253.26a9.08,9.08,0,0,1-2.18-.85,54.61,54.61,0,0,1-5-2.67,53,53,0,0,1-4.68-3.16,8.76,8.76,0,0,1-1.77-1.53,12.23,12.23,0,0,1,2,1.23c1.19.8,2.85,1.88,4.73,3s3.61,2.09,4.87,2.78A12,12,0,0,1,244.76,253.26Z" style="fill:#fff"></path><path d="M172.24,344.51a9,9,0,0,1-.2,1.68c-.16,1.09-.42,2.64-.77,4.57-.69,3.85-1.75,9.14-3.08,15s-2.71,11-3.76,14.8c-.53,1.88-1,3.4-1.3,4.44a10,10,0,0,1-.56,1.61,12.17,12.17,0,0,1,.36-1.66c.29-1.14.68-2.66,1.14-4.48,1-3.79,2.27-9,3.61-14.83s2.44-11.09,3.23-14.91c.38-1.85.69-3.38.93-4.53A12.26,12.26,0,0,1,172.24,344.51Z" style="fill:#fff"></path><path d="M177.43,337.06c.11.08-.32.86-1,1.72s-1.27,1.51-1.39,1.42.32-.86,1-1.73S177.31,337,177.43,337.06Z" style="fill:#fff"></path><path d="M250.49,344.91a9.66,9.66,0,0,1-.45-3.12,9.88,9.88,0,0,1,.06-3.16,9.66,9.66,0,0,1,.45,3.12A9.88,9.88,0,0,1,250.49,344.91Z" style="fill:#fff"></path><path d="M277.15,375.21a8.44,8.44,0,0,1-1.07-.95c-.66-.63-1.6-1.57-2.75-2.74-2.29-2.35-5.37-5.68-8.61-9.51s-6-7.41-8-10.05c-1-1.32-1.74-2.41-2.26-3.17a9.54,9.54,0,0,1-.76-1.21,7.61,7.61,0,0,1,.93,1.09l2.38,3.07c2,2.58,4.84,6.12,8.07,9.94s6.26,7.17,8.48,9.58l2.63,2.86A6.75,6.75,0,0,1,277.15,375.21Z" style="fill:#fff"></path><path d="M249.28,134.75a11.57,11.57,0,0,1,.5-3.43,11.59,11.59,0,0,1,1-3.31,11.57,11.57,0,0,1-.5,3.43A11.59,11.59,0,0,1,249.28,134.75Z" style="fill:#263238"></path><path d="M251.35,137.19a15.11,15.11,0,0,1,2.28-4.56,15.55,15.55,0,0,1,3.28-3.89c.12.1-1.32,1.85-2.84,4.18S251.48,137.25,251.35,137.19Z" style="fill:#263238"></path><path d="M253.38,138.3a4.59,4.59,0,0,1,2.37-.81,4.64,4.64,0,0,1,2.5.06,35.21,35.21,0,0,1-4.87.75Z" style="fill:#263238"></path><path d="M193.88,253a18.76,18.76,0,0,1-6.17-1.12,18.76,18.76,0,0,1,6.17,1.12Z" style="fill:#263238"></path><path d="M194.22,251.53a13.77,13.77,0,0,1-2.8-2.43,13.54,13.54,0,0,1-2.44-2.81,26.37,26.37,0,0,1,5.24,5.24Z" style="fill:#263238"></path><path d="M196.1,247.76a13.65,13.65,0,0,1-.57-5.24,6.84,6.84,0,0,1,.54,2.59A7,7,0,0,1,196.1,247.76Z" style="fill:#263238"></path><path d="M317.62,370.47a22.82,22.82,0,0,1,.31-6.8,22,22,0,0,1-.31,6.8Z" style="fill:#263238"></path><path d="M318.94,373.36A14.56,14.56,0,0,1,320.8,370a14.16,14.16,0,0,1,2.29-3.11,15,15,0,0,1-1.85,3.39A14.37,14.37,0,0,1,318.94,373.36Z" style="fill:#263238"></path><path d="M321.24,376a15,15,0,0,1,3.83-1.06,15.33,15.33,0,0,1,3.93-.56,15.28,15.28,0,0,1-3.83,1.07A15.56,15.56,0,0,1,321.24,376Z" style="fill:#263238"></path></g><g id="freepik--Plant--inject-263"><path d="M423.9,387.28a9.52,9.52,0,0,1,5.37,5.13,16.77,16.77,0,0,1,1.29,7.46c-.13,4.92-2.48,10.08-5.14,14.24-4.41-3.24-5.89-9.41-6.44-12.59-.88-5,.59-14.63,4.92-14.24" style="fill:#455a64"></path><path d="M430.89,421.75a8.07,8.07,0,0,1,1.95-7.89,10.69,10.69,0,0,1,7.68-3.14,4.53,4.53,0,0,1,3.6,1.26,3.46,3.46,0,0,1,.36,3.49,7.11,7.11,0,0,1-2.37,2.77c-3.37,2.54-7.1,4.37-11.22,3.51" style="fill:#455a64"></path><path d="M426.9,437.15a5.1,5.1,0,0,1,.06-1c.07-.71.16-1.64.26-2.75a28.43,28.43,0,0,1,2.06-8.89,17.37,17.37,0,0,1,5.65-7.13,11.68,11.68,0,0,1,2.43-1.34c.3-.13.55-.19.72-.25s.25-.07.25,0a18.24,18.24,0,0,0-3.26,1.84,18,18,0,0,0-5.46,7.07,30.17,30.17,0,0,0-2.13,8.78c-.16,1.16-.28,2.09-.38,2.74A6.42,6.42,0,0,1,426.9,437.15Z" style="fill:#263238"></path><path d="M423.42,394.7a1.24,1.24,0,0,1,.09.43c.05.32.11.74.18,1.25.16,1.09.35,2.66.58,4.61.47,3.9,1,9.29,1.51,15.26s.8,11.39,1,15.31c.09,2,.15,3.54.17,4.64q0,.78,0,1.26a2.28,2.28,0,0,1,0,.45,2.59,2.59,0,0,1-.06-.44c0-.33-.05-.75-.08-1.26-.07-1.14-.17-2.72-.29-4.64-.24-3.92-.59-9.32-1.07-15.29s-1-11.36-1.41-15.26c-.19-1.92-.35-3.49-.46-4.62l-.12-1.26A2.91,2.91,0,0,1,423.42,394.7Z" style="fill:#263238"></path><path d="M424,425.33a18.89,18.89,0,0,0-11.48-12.94c-1.43-.54-3.25-.82-4.3.3s-.63,2.93.05,4.31A16.18,16.18,0,0,0,424,425.74" style="fill:#455a64"></path><path d="M413.61,417a4,4,0,0,1,.91.3,9.56,9.56,0,0,1,1,.44c.39.2.85.39,1.32.68s1,.58,1.53,1A17.18,17.18,0,0,1,420,420.6a19.45,19.45,0,0,1,5.5,7.63,16.74,16.74,0,0,1,.65,2,13.24,13.24,0,0,1,.4,1.76c.12.53.14,1,.2,1.47a9.58,9.58,0,0,1,.06,1.12,3.93,3.93,0,0,1,0,.95c-.08,0-.05-1.36-.48-3.5a15.41,15.41,0,0,0-.43-1.72,20.12,20.12,0,0,0-.67-1.92,20,20,0,0,0-5.41-7.51,18.94,18.94,0,0,0-1.61-1.27,17.12,17.12,0,0,0-1.48-1C414.87,417.49,413.58,417,413.61,417Z" style="fill:#263238"></path></g><g id="freepik--Floor--inject-263"><path d="M477.32,438.07c0,.15-103.9.26-232,.26s-232.07-.11-232.07-.26,103.88-.26,232.07-.26S477.32,437.93,477.32,438.07Z" style="fill:#263238"></path></g></svg>