<svg id="Layer_1" data-name="Layer 1" xmlns="http://www.w3.org/2000/svg" viewBox="0 0 400 300" width="406" height="306" class="illustration styles_illustrationTablet__1DWOa"><title>_</title><path d="M312.41,146.45A116.18,116.18,0,0,1,262,242.25H130.24a116.27,116.27,0,1,1,182.17-95.8Z" fill="#FFB648"></path><path d="M299.17,203.31A111.68,111.68,0,0,1,262,242.25H130.24a111.68,111.68,0,0,1-37.13-38.94Z" opacity="0.08"></path><rect x="73.64" y="224.88" width="231.31" height="28.6" rx="14.3" fill="#ffd200"></rect><ellipse cx="142.15" cy="241.05" rx="37.15" ry="4.94" opacity="0.08"></ellipse><rect x="123.97" y="253.48" width="202.4" height="16.34" rx="8.17" fill="#ffd200"></rect><path d="M163.89,228.46a11.68,11.68,0,0,1-.09,1.46,12.72,12.72,0,1,1,.09-1.46Z" fill="#fff"></path><circle cx="128.4" cy="65.74" r="24" fill="#ffd200"></circle><path d="M136.2,171.51c0,23.12-3.32,57.6-8.2,67.87H113.18c-4.87-10.27-8.19-44.75-8.19-67.87,0-33.54,15.6-46.34,15.6-46.34S136.2,138,136.2,171.51Z" fill="#FFB648"></path><path d="M136.2,171.51c0,23.12-3.32,57.6-8.2,67.87H113.18c-4.87-10.27-8.19-44.75-8.19-67.87,0-33.54,15.6-46.34,15.6-46.34S136.2,138,136.2,171.51Z" fill="#24285b"></path><path d="M136.2,171.51c0,23.12-3.32,57.6-8.2,67.87h-7.41V125.17S136.2,138,136.2,171.51Z" fill="#fff" opacity="0.2"></path><rect x="251.08" y="136.37" width="3.51" height="88.51" fill="#999"></rect><polygon points="326.36 139.61 179.3 139.61 252.83 112.66 326.36 139.61" fill="#e6e6e6"></polygon><path d="M179.3,139.61h49a0,0,0,0,1,0,0v0a5.82,5.82,0,0,1-5.82,5.82H185.12a5.82,5.82,0,0,1-5.82-5.82v0A0,0,0,0,1,179.3,139.61Z" fill="#ccc"></path><path d="M228.32,139.61h49a0,0,0,0,1,0,0v0a5.82,5.82,0,0,1-5.82,5.82H234.14a5.82,5.82,0,0,1-5.82-5.82v0a0,0,0,0,1,0,0Z" fill="#ccc"></path><path d="M277.34,139.61h49a0,0,0,0,1,0,0v0a5.82,5.82,0,0,1-5.82,5.82H283.16a5.82,5.82,0,0,1-5.82-5.82v0A0,0,0,0,1,277.34,139.61Z" fill="#ccc"></path><polygon points="228.32 139.61 252.83 112.66 277.34 139.61 228.32 139.61" opacity="0.08"></polygon><path d="M136.2,111.8a6.63,6.63,0,0,1,6.63-6.63,6.23,6.23,0,0,1,1.06.09,8.94,8.94,0,0,1,7.87-4.71l.33,0a10.34,10.34,0,0,1-.33-2.57A10.61,10.61,0,1,1,173,98a10.34,10.34,0,0,1-.33,2.57l.33,0a8.94,8.94,0,0,1,0,17.88H142v-.07A6.61,6.61,0,0,1,136.2,111.8Z" fill="#f2f2f2" opacity="0.49"></path><path d="M262,81.61a5.78,5.78,0,0,0-5.78-5.79,5.64,5.64,0,0,0-.93.08,7.81,7.81,0,0,0-6.87-4.11l-.29,0a9.26,9.26,0,1,0-18,0l-.28,0a7.8,7.8,0,1,0,0,15.6h27.07v0A5.78,5.78,0,0,0,262,81.61Z" fill="#f2f2f2" opacity="0.49"></path><polygon points="210.59 198.33 237.53 198.33 234.67 205.99 213.44 205.99 210.59 198.33" fill="#e6e6e6"></polygon><polygon points="233.23 198.33 223.83 164.48 214.88 198.33 233.23 198.33" fill="#e6e6e6"></polygon><path d="M163.8,229.92a12.76,12.76,0,1,1-18.64-12.75,15.35,15.35,0,0,0,.42,6.87c.9,3,2.94,5.86,5.95,6.67a14,14,0,0,0,5.77-.12C159.46,230.28,161.62,230.05,163.8,229.92Z" opacity="0.08"></path></svg>